#!OML:ASF F:\VICON\USERDATA\INSTALL\rory3\rory3.ASF
:FULLY-SPECIFIED
:DEGREES
238
root 0.628462 17.8175 13.0504 -3.82294 2.9114 -1.04767
lowerback 7.59575 -1.69991 -1.84427
upperback 0.277232 -2.30567 2.9513
thorax -3.77725 -1.08981 4.35116
lowerneck -16.1657 -2.97847 -1.599
upperneck 18.7174 -3.8063 0.430741
head 8.53963 -1.86589 -0.0488366
rclavicle -1.47535e-014 7.95139e-015
rhumerus -37.3837 -19.4113 -74.9609
rradius 25.6428
rwrist 6.56603
rhand -12.5808 19.9119
rfingers 7.12502
rthumb 13.4972 -9.63067
lclavicle -1.47535e-014 7.95139e-015
lhumerus -34.008 -2.39793 82.0872
lradius 33.9039
lwrist 2.34765
lhand -30.329 11.884
lfingers 7.12502
lthumb -3.63518 41.8328
rfemur -25.1528 2.28759 24.8767
rtibia 32.4713
rfoot -5.62443 -3.70325
rtoes -2.25025
lfemur 10.2451 -4.79365 -21.1057
ltibia 42.4576
lfoot 4.21752 -17.4309
ltoes -34.9598
239
root 0.606036 17.8616 13.2448 -3.87393 2.89603 -1.33626
lowerback 7.57182 -1.66092 -1.56619
upperback 0.399004 -2.22828 3.02328
thorax -3.6517 -1.05951 4.25654
lowerneck -16.7313 -2.99883 -1.38744
upperneck 18.7823 -3.81118 0.117154
head 8.65203 -1.88342 -0.199239
rclavicle -1.18215e-014 1.59028e-015
rhumerus -37.2758 -19.0304 -75.223
rradius 25.7977
rwrist 6.23813
rhand -12.6164 20.3151
rfingers 7.12502
rthumb 13.463 -9.22982
lclavicle -1.18215e-014 1.59028e-015
lhumerus -34.1413 -2.62812 82.3481
lradius 34.0254
lwrist 2.57492
lhand -30.3139 12.957
lfingers 7.12502
lthumb -3.62061 42.906
rfemur -24.3874 2.38286 25.3684
rtibia 32.4452
rfoot -5.52533 -3.53764
rtoes -3.95467
lfemur 8.81182 -4.6383 -20.4518
ltibia 44.9372
lfoot 6.25487 -18.9111
ltoes -33.8213
240
root 0.586255 17.8805 13.4294 -3.98261 2.73323 -1.99458
lowerback 7.66257 -1.58496 -0.833048
upperback 0.486291 -2.06021 3.13327
thorax -3.64775 -0.987803 3.94078
lowerneck -17.0052 -3.06641 -1.22693
upperneck 18.7545 -3.91723 0.00460632
head 8.68639 -1.93264 -0.280775
rclavicle 1.85553e-014 -8.74653e-015
rhumerus -37.3453 -18.6925 -75.4834
rradius 25.9833
rwrist 5.94511
rhand -12.9516 21.3743
rfingers 7.12502
rthumb 13.1398 -8.19165
lclavicle 1.85553e-014 -8.74653e-015
lhumerus -34.2471 -3.07014 82.591
lradius 34.0069
lwrist 3.10488
lhand -29.9769 15.2288
lfingers 7.12502
lthumb -3.29512 45.1831
rfemur -23.5263 2.57737 26.2719
rtibia 32.1983
rfoot -5.79768 -3.59772
rtoes -3.6578
lfemur 7.36345 -4.47342 -19.3926
ltibia 47.4731
lfoot 8.96217 -19.7276
ltoes -26.8769
241
root 0.565124 17.8923 13.6047 -4.06675 2.32921 -2.79765
lowerback 7.79816 -1.41356 0.0423155
upperback 0.538192 -1.74915 3.26325
thorax -3.71482 -0.845521 3.55304
lowerneck -17.0704 -3.11133 -1.20233
upperneck 18.6076 -4.02738 0.208708
head 8.65269 -1.96072 -0.229156
rclavicle 1.8313e-014 -5.80451e-014
rhumerus -37.2069 -18.5421 -75.742
rradius 25.841
rwrist 5.91669
rhand -13.5285 22.2186
rfingers 7.12502
rthumb 12.5837 -7.38239
lclavicle 1.8313e-014 -5.80451e-014
lhumerus -34.2639 -3.55692 82.8196
lradius 33.7263
lwrist 3.43031
lhand -28.959 18.2222
lfingers 7.12502
lthumb -2.31213 48.1894
rfemur -22.5685 2.77093 27.3903
rtibia 31.6323
rfoot -5.97847 -3.59041
rtoes -2.48159
lfemur 5.75067 -4.1482 -18.1769
ltibia 50.0655
lfoot 12.0148 -20.1303
ltoes -13.208
242
root 0.551732 17.9355 13.7733 -4.00459 2.02313 -3.37033
lowerback 7.93504 -1.31066 0.734561
upperback 0.499985 -1.54018 3.40395
thorax -3.85845 -0.750257 3.29231
lowerneck -17.1551 -3.10647 -1.3071
upperneck 18.551 -4.00797 0.289085
head 8.65264 -1.95009 -0.183392
rclavicle -5.43552e-015 1.03368e-014
rhumerus -36.8744 -18.2079 -75.9632
rradius 25.6353
rwrist 5.62674
rhand -13.613 22.4702
rfingers 7.12502
rthumb 12.5023 -7.13583
lclavicle -5.43552e-015 1.03368e-014
lhumerus -34.3195 -3.58717 83.0788
lradius 33.4139
lwrist 3.42464
lhand -27.453 22.0983
lfingers 7.12502
lthumb -0.857592 52.0764
rfemur -21.7641 2.93135 28.1832
rtibia 31.2661
rfoot -6.17404 -3.45041
rtoes -3.40396
lfemur 3.71447 -3.77778 -17.2639
ltibia 52.5442
lfoot 15.3499 -20.749
ltoes -11.4503
243
root 0.541703 17.9929 13.9479 -4.03935 1.92568 -3.87794
lowerback 7.99385 -1.26344 1.40341
upperback 0.499385 -1.41028 3.51264
thorax -3.91238 -0.695769 3.01619
lowerneck -16.8233 -3.13952 -1.45133
upperneck 18.2394 -4.03182 0.361818
head 8.49261 -1.96662 -0.129556
rclavicle 2.60159e-014 -6.36111e-015
rhumerus -36.7057 -17.5742 -76.3149
rradius 25.7452
rwrist 4.88089
rhand -13.4713 22.529
rfingers 7.12502
rthumb 12.6389 -7.06859
lclavicle 2.60159e-014 -6.36111e-015
lhumerus -34.5697 -3.64108 83.3539
lradius 33.3491
lwrist 3.25903
lhand -25.8518 25.9583
lfingers 7.12502
lthumb 0.6889 55.9369
rfemur -20.8464 2.85485 28.8705
rtibia 30.986
rfoot -6.53772 -3.3001
rtoes -3.97546
lfemur 1.26358 -3.29938 -16.465
ltibia 54.9493
lfoot 18.617 -21.3901
ltoes -9.908
244
root 0.530546 17.9696 14.1148 -4.16132 1.71808 -4.15477
lowerback 8.01384 -1.12938 1.77908
upperback 0.65397 -1.20345 3.49661
thorax -3.77951 -0.600127 2.7618
lowerneck -16.8376 -3.2347 -1.36263
upperneck 18.0525 -4.18113 0.353663
head 8.43093 -2.03227 -0.163227
rclavicle -2.35933e-014 9.54166e-015
rhumerus -36.4113 -17.201 -76.753
rradius 25.7743
rwrist 4.56266
rhand -13.5803 22.7917
rfingers 7.12502
rthumb 12.5338 -6.81235
lclavicle -2.35933e-014 9.54166e-015
lhumerus -34.6084 -3.97501 83.543
lradius 33.3761
lwrist 3.21728
lhand -24.1127 29.2636
lfingers 7.12502
lthumb 2.36851 59.2302
rfemur -20.1272 2.85249 29.332
rtibia 30.9498
rfoot -6.94711 -3.22424
rtoes -3.49627
lfemur 0.795657 -3.30206 -15.9153
ltibia 57.0237
lfoot 17.2168 -21.7081
ltoes -11.7679
245
root 0.517366 17.9696 14.2854 -4.27168 1.4187 -4.33656
lowerback 8.12561 -0.967657 2.01815
upperback 0.779914 -0.967309 3.48372
thorax -3.72342 -0.48686 2.5877
lowerneck -17.094 -3.28815 -1.41405
upperneck 18.0501 -4.27656 0.539598
head 8.48222 -2.0595 -0.108684
rclavicle 1.76421e-014 1.11319e-014
rhumerus -35.8771 -16.61 -77.2223
rradius 25.4437
rwrist 4.14987
rhand -14.1536 22.7171
rfingers 7.12502
rthumb 11.981 -6.91998
lclavicle 1.76421e-014 1.11319e-014
lhumerus -34.5624 -4.19894 83.7489
lradius 33.2652
lwrist 3.13159
lhand -22.6344 31.3582
lfingers 7.12502
lthumb 3.79615 61.3041
rfemur -19.4389 2.9153 29.688
rtibia 31.0806
rfoot -7.21701 -3.01019
rtoes -1.28763
lfemur -0.149397 -2.99936 -15.499
ltibia 59.0026
lfoot 15.0918 -21.3546
ltoes -14.832
246
root 0.505949 17.9706 14.4479 -4.36548 1.22128 -4.72418
lowerback 8.34093 -0.914837 2.4444
upperback 0.754755 -0.843592 3.56152
thorax -3.87898 -0.431555 2.42053
lowerneck -16.8565 -3.19788 -1.38001
upperneck 17.9082 -4.16102 0.533085
head 8.38998 -2.00542 -0.0967091
rclavicle -7.65321e-015 -3.97569e-015
rhumerus -35.7306 -15.8028 -77.5653
rradius 25.455
rwrist 3.76063
rhand -14.4483 22.5867
rfingers 7.12502
rthumb 11.6968 -7.06672
lclavicle -7.65321e-015 -3.97569e-015
lhumerus -34.6526 -4.14422 83.9098
lradius 32.8687
lwrist 3.0097
lhand -22.1853 31.5466
lfingers 7.12502
lthumb 4.22981 61.4843
rfemur -18.9362 2.97422 30.2429
rtibia 31.4728
rfoot -7.53676 -2.62765
rtoes 1.40148
lfemur -1.5306 -2.56964 -14.7912
ltibia 60.9002
lfoot 12.9848 -21.0952
ltoes -19.2627
247
root 0.497776 17.9762 14.6065 -4.471 1.28112 -4.80694
lowerback 8.6 -0.903866 2.59651
upperback 0.665236 -0.797625 3.55604
thorax -4.1206 -0.411741 2.33143
lowerneck -16.4184 -3.14517 -1.31934
upperneck 17.6998 -4.08077 0.406016
head 8.23695 -1.98007 -0.129787
rclavicle 6.50399e-015 3.02153e-014
rhumerus -35.7903 -15.1754 -77.7693
rradius 25.6698
rwrist 3.53207
rhand -14.2707 22.8377
rfingers 7.12502
rthumb 11.8681 -6.806
lclavicle 6.50399e-015 3.02153e-014
lhumerus -34.8587 -4.23058 84.1622
lradius 32.4519
lwrist 2.95596
lhand -22.3147 30.2992
lfingers 7.12502
lthumb 4.10487 60.2394
rfemur -18.3679 2.82106 30.4204
rtibia 31.694
rfoot -8.71827 -2.3434
rtoes -0.574557
lfemur -2.91122 -2.38508 -14.52
ltibia 62.7122
lfoot 10.511 -20.7305
ltoes -23.0215
248
root 0.49227 17.9931 14.7646 -4.52919 1.26349 -4.60012
lowerback 8.75106 -0.812348 2.52396
upperback 0.651739 -0.679502 3.44355
thorax -4.22205 -0.353014 2.24381
lowerneck -16.221 -3.22234 -1.3594
upperneck 17.6304 -4.17674 0.396599
head 8.18016 -2.03048 -0.133662
rclavicle 1.99406e-014 1.98785e-015
rhumerus -35.4861 -15.1649 -77.8325
rradius 25.3624
rwrist 3.85205
rhand -14.1308 23.1941
rfingers 7.12502
rthumb 12.003 -6.44176
lclavicle 1.99406e-014 1.98785e-015
lhumerus -34.9409 -3.97718 84.2176
lradius 32.1866
lwrist 2.39442
lhand -23.2598 28.8987
lfingers 7.12502
lthumb 3.19217 58.8546
rfemur -17.7743 2.60089 30.2665
rtibia 31.7499
rfoot -9.76658 -2.24769
rtoes -3.25319
lfemur -4.31119 -2.12745 -14.6486
ltibia 64.3219
lfoot 8.56616 -19.9754
ltoes -26.0416
249
root 0.481066 18.0069 14.912 -4.57585 0.926091 -4.61264
lowerback 8.96238 -0.621849 2.62179
upperback 0.721705 -0.41135 3.38684
thorax -4.27378 -0.222491 2.09898
lowerneck -16.2547 -3.28027 -1.34299
upperneck 17.5649 -4.26944 0.448155
head 8.1658 -2.06793 -0.130012
rclavicle 6.83322e-016 8.34896e-015
rhumerus -34.92 -15.069 -77.989
rradius 24.9786
rwrist 3.8328
rhand -13.9274 22.874
rfingers 7.12502
rthumb 12.1991 -6.75026
lclavicle 6.83322e-016 8.34896e-015
lhumerus -35.142 -3.2969 84.0609
lradius 32.4644
lwrist 1.45472
lhand -21.9319 30.0081
lfingers 7.12502
lthumb 4.47455 59.9409
rfemur -17.1637 2.86371 30.4109
rtibia 31.6539
rfoot -9.84197 -2.65403
rtoes -2.93162
lfemur -5.81247 -1.59888 -14.4512
ltibia 65.7588
lfoot 8.20641 -18.8345
ltoes -28.0988
250
root 0.46992 18.0328 15.0671 -4.69648 0.460572 -4.74173
lowerback 9.07954 -0.449918 2.77653
upperback 0.857834 -0.166552 3.40415
thorax -4.2019 -0.103421 1.99906
lowerneck -16.2859 -3.21685 -1.37913
upperneck 17.6225 -4.17598 0.461636
head 8.19101 -2.0242 -0.10975
rclavicle 7.98866e-015 -1.23246e-014
rhumerus -34.4015 -14.576 -78.2775
rradius 24.8379
rwrist 3.28786
rhand -13.7191 22.1209
rfingers 7.12502
rthumb 12.3999 -7.49133
lclavicle 7.98866e-015 -1.23246e-014
lhumerus -35.3427 -2.87915 84.0627
lradius 32.6072
lwrist 1.43111
lhand -22.0861 31.1829
lfingers 7.12502
lthumb 4.3256 61.1187
rfemur -16.2834 3.0735 30.6983
rtibia 31.3427
rfoot -9.90579 -2.78354
rtoes -2.76967
lfemur -7.32586 -0.864028 -14.1315
ltibia 66.9072
lfoot 6.96981 -16.81
ltoes -21.4691
251
root 0.463835 18.0732 15.2326 -4.86807 0.28427 -4.62295
lowerback 9.22223 -0.330234 2.79683
upperback 0.935545 -0.00665676 3.28732
thorax -4.20271 -0.0253731 1.84604
lowerneck -16.3234 -3.18201 -1.4362
upperneck 17.8542 -4.13796 0.564973
head 8.27888 -1.99806 -0.0645197
rclavicle 1.12065e-014 -9.14409e-015
rhumerus -34.1004 -14.2761 -78.5374
rradius 24.7292
rwrist 2.99172
rhand -14.0212 22.2384
rfingers 7.12502
rthumb 12.1086 -7.39127
lclavicle 1.12065e-014 -9.14409e-015
lhumerus -35.3122 -2.8253 84.1632
lradius 32.2529
lwrist 1.74703
lhand -22.8459 30.905
lfingers 7.12502
lthumb 3.59195 60.8545
rfemur -15.1231 2.94891 30.6642
rtibia 30.7093
rfoot -10.1942 -2.68864
rtoes -4.20044
lfemur -9.04892 -0.204594 -14.2585
ltibia 67.7935
lfoot 5.90121 -15.4907
ltoes -19.9635
252
root 0.462058 18.1139 15.4013 -4.99232 0.120519 -4.55544
lowerback 9.23289 -0.217007 2.93416
upperback 1.06354 0.148113 3.18479
thorax -4.0762 0.0492706 1.64098
lowerneck -16.449 -3.25617 -1.41946
upperneck 17.9416 -4.23456 0.522332
head 8.33016 -2.04579 -0.0960502
rclavicle 2.43511e-015 7.55382e-015
rhumerus -33.7808 -13.8759 -78.8119
rradius 25.009
rwrist 3.15088
rhand -13.9756 21.804
rfingers 7.12502
rthumb 12.1527 -7.82306
lclavicle 2.43511e-015 7.55382e-015
lhumerus -35.2274 -2.45653 84.1117
lradius 32.0361
lwrist 1.20184
lhand -23.0255 29.9775
lfingers 7.12502
lthumb 3.41849 59.9299
rfemur -13.9149 2.84315 30.6496
rtibia 29.8858
rfoot -10.3463 -2.61202
rtoes -4.50164
lfemur -10.9695 0.41767 -14.3912
ltibia 68.3443
lfoot 5.47026 -14.1817
ltoes -20.0319
